<svg width="30" height="30" viewBox="0 0 30 30" fill="none" xmlns="http://www.w3.org/2000/svg">
<path d="M30 15C30 23.2843 23.2843 30 15 30C6.71573 30 0 23.2843 0 15C0 6.71573 6.71573 0 15 0C23.2843 0 30 6.71573 30 15Z" fill="#411E0B"/>
<path d="M6.90444 7.34859C6.90444 5.78762 8.16985 4.52221 9.73082 4.52221H20.2288C21.7898 4.52221 23.0552 5.78762 23.0552 7.34859V21.0767C23.0552 21.9687 22.3321 22.6918 21.4401 22.6918H8.51952C7.62754 22.6918 6.90444 21.9687 6.90444 21.0767V7.34859Z" fill="#FCFF5E"/>
<path d="M8.7214 22.6918H11.467V24.7106C11.467 25.1566 11.1055 25.5182 10.6595 25.5182H9.52894C9.08295 25.5182 8.7214 25.1566 8.7214 24.7106V22.6918Z" fill="#FCFF5E"/>
<path d="M18.4926 22.6918H21.2382V24.7106C21.2382 25.1566 20.8767 25.5182 20.4307 25.5182H19.3001C18.8541 25.5182 18.4926 25.1566 18.4926 24.7106V22.6918Z" fill="#FCFF5E"/>
<path d="M8.7214 7.95424C8.7214 7.06226 9.44449 6.33917 10.3365 6.33917H19.6231C20.5151 6.33917 21.2382 7.06226 21.2382 7.95424V14.8183C21.2382 15.7103 20.5151 16.4334 19.6231 16.4334H10.3365C9.44449 16.4334 8.7214 15.7103 8.7214 14.8183V7.95424Z" fill="#411E0B"/>
<path d="M11.9515 19.5828C11.9515 20.4748 11.2285 21.1978 10.3365 21.1978C9.44449 21.1978 8.7214 20.4748 8.7214 19.5828C8.7214 18.6908 9.44449 17.9677 10.3365 17.9677C11.2285 17.9677 11.9515 18.6908 11.9515 19.5828Z" fill="#411E0B"/>
<path d="M21.2382 19.5828C21.2382 20.4748 20.5151 21.1978 19.6231 21.1978C18.7312 21.1978 18.0081 20.4748 18.0081 19.5828C18.0081 18.6908 18.7312 17.9677 19.6231 17.9677C20.5151 17.9677 21.2382 18.6908 21.2382 19.5828Z" fill="#411E0B"/>
<path d="M23.0552 8.51952H23.459C23.9049 8.51952 24.2665 8.88106 24.2665 9.32705V11.7497C24.2665 12.1957 23.9049 12.5572 23.459 12.5572H23.0552V8.51952Z" fill="#FCFF5E"/>
<path d="M5.69314 9.32705C5.69314 8.88106 6.05468 8.51952 6.50067 8.51952H6.90444V12.5572H6.50067C6.05468 12.5572 5.69314 12.1957 5.69314 11.7497V9.32705Z" fill="#FCFF5E"/>
</svg>
